<svg width="170" height="170" viewBox="0 0 170 170" fill="none" xmlns="http://www.w3.org/2000/svg">
<circle cx="85" cy="85" r="85" fill="white"/>
<path d="M111.628 126H58.3717C51.0123 126 45 119.988 45 112.628V59.3717C45 52.0123 51.0123 46 58.3717 46H111.628C118.988 46 125 52.0123 125 59.3717V112.628C125 120.021 119.021 126 111.628 126Z" fill="black"/>
<path d="M85.0165 106.55C79.5298 106.55 74.3717 104.415 70.4949 100.538C66.6181 96.6612 64.4826 91.5031 64.4826 86.0164C64.4826 80.5298 66.6181 75.3717 70.4949 71.4949C74.3717 67.6181 79.5298 65.4825 85.0165 65.4825C90.5031 65.4825 95.6612 67.6181 99.538 71.4949C103.415 75.3717 105.55 80.5298 105.55 86.0164C105.55 91.5031 103.415 96.6612 99.538 100.538C95.6284 104.415 90.5031 106.55 85.0165 106.55ZM85.0165 69.8522C76.113 69.8522 68.8522 77.0801 68.8522 86.0164C68.8522 94.9199 76.0801 102.181 85.0165 102.181C93.92 102.181 101.181 94.9528 101.181 86.0164C101.148 77.1129 93.92 69.8522 85.0165 69.8522Z" fill="white"/>
<path d="M109.553 64.8077C111.73 64.8077 113.495 63.0425 113.495 60.8651C113.495 58.6876 111.73 56.9225 109.553 56.9225C107.375 56.9225 105.61 58.6876 105.61 60.8651C105.61 63.0425 107.375 64.8077 109.553 64.8077Z" fill="white"/>
</svg>
